<?xml version="1.0" encoding="iso-8859-1"?>
<!DOCTYPE svg PUBLIC "-//W3C//DTD SVG 1.1//EN" "http://www.w3.org/Graphics/SVG/1.1/DTD/svg11.dtd">
<svg 
 version="1.1" xmlns="http://www.w3.org/2000/svg" xmlns:xlink="http://www.w3.org/1999/xlink" x="0px" y="0px" width="512px"
	 height="512px" viewBox="0 0 512 512" style="enable-background:new 0 0 512 512;" xml:space="preserve"
><g id="afcae5a789ccd549f9c6e2a2f80cf4d6"><g></g><path display="inline" d="M295.032,361.219h71.435L256,497.839l-110.476-136.62h71.436V244.115h78.072V361.219z M423.064,160.791
		c2.079-7.369,3.269-15.108,3.269-23.139c0-47.037-38.129-80.908-85.166-80.908c-15.782,0-30.512,3.885-43.183,10.729
		C275.017,34.8,236.176,14.161,192.125,14.161c-70.554,0-127.75,52.938-127.75,123.491c0,8.999,0.94,17.773,2.711,26.249
		C28.466,176.256,0.5,212.432,0.5,255.156c0,52.917,42.895,95.813,95.813,95.813l2.586-0.005l-15.813-19.553h62.438h41.627v-87.296
		v-29.809h29.809h78.072h29.808v29.809v87.296h41.627h62.437l-15.495,19.162l3.078-0.004c52.472,0,95.014-42.542,95.014-95.014
		C511.5,205.295,472.468,164.172,423.064,160.791z"/></g></svg>